<?xml version="1.0" standalone="no"?>
<!DOCTYPE svg PUBLIC "-//W3C//DTD SVG 20010904//EN"
 "http://www.w3.org/TR/2001/REC-SVG-20010904/DTD/svg10.dtd">
<svg version="1.0" xmlns="http://www.w3.org/2000/svg"
 width="150.000000pt" height="150.000000pt" viewBox="0 0 150.000000 150.000000"
 preserveAspectRatio="xMidYMid meet">
<metadata>
Created by potrace 1.10, written by Peter Selinger 2001-2011
</metadata>
<g transform="translate(0.000000,150.000000) scale(0.100000,-0.100000)"
fill="#000000" stroke="none">
<path d="M450 1490 c-178 -9 -229 -28 -321 -119 -91 -92 -110 -142 -118 -323
-3 -75 -3 -134 0 -130 4 4 12 57 17 117 15 155 40 227 101 295 79 90 134 111
361 139 46 6 89 16 94 21 6 6 8 9 6 8 -3 -1 -66 -4 -140 -8z"/>
<path d="M918 1488 c4 -4 43 -12 87 -18 223 -29 286 -52 355 -126 72 -78 94
-139 110 -308 5 -61 13 -113 17 -117 5 -5 5 54 2 129 -8 180 -26 231 -118 323
-92 92 -143 110 -323 118 -75 3 -134 3 -130 -1z"/>
<path d="M437 1390 c-117 -9 -187 -39 -245 -105 -62 -70 -74 -121 -82 -344 -3
-107 -3 -282 0 -390 8 -225 18 -264 87 -341 54 -60 120 -89 232 -101 112 -11
531 -11 643 1 150 15 232 68 284 184 27 58 28 70 34 258 3 109 3 287 0 395 -5
185 -7 202 -31 253 -61 131 -135 176 -315 190 -137 11 -463 11 -607 0z m760
-59 c64 -28 114 -81 139 -147 17 -45 19 -80 19 -439 0 -389 0 -390 -24 -442
-28 -64 -81 -114 -147 -139 -45 -17 -80 -19 -434 -19 -354 0 -389 2 -434 19
-66 25 -119 75 -147 139 -24 52 -24 53 -24 447 0 391 0 395 23 445 38 83 99
132 189 154 21 5 207 9 413 8 371 -2 376 -2 427 -26z"/>
<path d="M1089 1211 c-20 -20 -29 -39 -29 -61 0 -43 47 -90 90 -90 43 0 90 47
90 90 0 22 -9 41 -29 61 -40 39 -82 39 -122 0z m109 -24 c22 -18 10 -70 -20
-87 -25 -13 -31 -13 -55 0 -22 13 -28 23 -28 50 0 53 58 74 103 37z"/>
<path d="M688 1130 c-118 -20 -227 -100 -278 -204 -163 -332 169 -676 505
-522 188 86 270 317 182 510 -70 153 -243 244 -409 216z m215 -63 c77 -35 149
-110 177 -184 30 -81 26 -216 -9 -288 -35 -70 -86 -122 -155 -158 -57 -30 -68
-32 -166 -32 -96 0 -110 3 -158 28 -124 65 -181 150 -191 285 -6 72 -4 96 14
147 35 104 109 178 218 217 76 27 193 21 270 -15z"/>
<path d="M632 999 c-70 -34 -115 -85 -143 -159 -25 -65 -24 -115 2 -184 92
-239 405 -252 510 -22 27 60 26 176 -2 234 -70 143 -230 200 -367 131z m203
-16 c92 -31 165 -134 165 -233 0 -60 -30 -130 -75 -175 -98 -98 -252 -98 -350
0 -98 98 -98 252 0 350 69 70 164 91 260 58z"/>
<path d="M11 452 c8 -180 26 -231 118 -323 92 -91 142 -110 323 -118 75 -3
134 -3 130 1 -4 4 -55 12 -112 18 -174 18 -258 49 -332 127 -68 72 -100 164
-113 335 -11 139 -21 110 -14 -40z"/>
<path d="M1485 581 c-3 -6 -10 -58 -16 -118 -16 -174 -44 -249 -122 -320 -77
-71 -147 -96 -317 -113 -57 -6 -108 -14 -112 -18 -4 -4 55 -4 130 -1 181 8
231 27 323 118 92 92 110 143 118 324 3 75 5 137 4 137 -1 0 -4 -4 -8 -9z"/>
</g>
</svg>
